<?xml version="1.0"?>
<svg version="1.1" xmlns="http://www.w3.org/2000/svg" xmlns:xlink="http://www.w3.org/1999/xlink" width="512" height="512">
    <desc iVinci="yes" version="4.6" gridStep="20" showGrid="no" snapToGrid="no" codePlatform="0"/>
    <g id="Layer1" name="Layer 1" opacity="1">
        <g id="Shape1">
            <desc shapeID="1" type="0" basicInfo-basicType="0" basicInfo-roundedRectRadius="12" basicInfo-polygonSides="6" basicInfo-starPoints="5" bounding="rect(-141.51,-112.2,283.02,224.401)" text="" font-familyName="" font-pixelSize="20" font-bold="0" font-underline="0" font-alignment="1" strokeStyle="0" markerStart="0" markerEnd="0" shadowEnabled="0" shadowOffsetX="0" shadowOffsetY="2" shadowBlur="4" shadowOpacity="160" blurEnabled="0" blurRadius="4" transform="matrix(1,0,0,1,249.589,261.496)" pers-center="0,0" pers-size="0,0" pers-start="0,0" pers-end="0,0" locked="0" mesh="" flag=""/>
            <path id="shapePath1" d="M108.079,239.971 C108.079,327.9 178.605,373.696 250.047,373.696 C321.488,373.696 391.098,324.236 391.098,239.971 C391.098,172.193 347.441,149.295 314.161,149.295 C287.556,149.295 265.617,167.614 265.617,167.614 L235.392,167.614 C235.392,167.614 218.905,150.211 180.436,150.211 C141.968,150.211 108.079,183.184 108.079,239.971 Z" style="stroke:#000000;stroke-opacity:1;stroke-width:20;stroke-linejoin:round;stroke-miterlimit:2;stroke-linecap:round;fill-rule:nonzero;fill:#000000;fill-opacity:1;"/>
        </g>
        <g id="Shape2">
            <desc shapeID="2" type="0" basicInfo-basicType="0" basicInfo-roundedRectRadius="12" basicInfo-polygonSides="6" basicInfo-starPoints="5" bounding="rect(-27.0197,-8.80965,54.0394,17.6193)" text="" font-familyName="" font-pixelSize="20" font-bold="0" font-underline="0" font-alignment="1" strokeStyle="0" markerStart="0" markerEnd="0" shadowEnabled="0" shadowOffsetX="0" shadowOffsetY="2" shadowBlur="4" shadowOpacity="160" blurEnabled="0" blurRadius="4" transform="matrix(1,0,0,1,269.739,187.198)" pers-center="0,0" pers-size="0,0" pers-start="0,0" pers-end="0,0" locked="0" mesh="" flag=""/>
            <path id="shapePath2" d="M242.719,196.007 C242.719,196.007 262.869,173.109 296.759,179.521 " style="stroke:#000000;stroke-opacity:1;stroke-width:10;stroke-linejoin:round;stroke-miterlimit:2;stroke-linecap:round;fill:none;"/>
        </g>
        <g id="Shape3">
            <desc shapeID="3" type="0" basicInfo-basicType="0" basicInfo-roundedRectRadius="12" basicInfo-polygonSides="6" basicInfo-starPoints="5" bounding="rect(-21.0662,-10.0751,42.1324,20.1503)" text="" font-familyName="" font-pixelSize="20" font-bold="0" font-underline="0" font-alignment="1" strokeStyle="0" markerStart="0" markerEnd="0" shadowEnabled="0" shadowOffsetX="0" shadowOffsetY="2" shadowBlur="4" shadowOpacity="160" blurEnabled="0" blurRadius="4" transform="matrix(1,0,0,1,224.401,181.352)" pers-center="0,0" pers-size="0,0" pers-start="0,0" pers-end="0,0" locked="0" mesh="" flag=""/>
            <path id="shapePath3" d="M203.335,171.277 C203.335,171.277 228.98,172.193 245.467,191.428 " style="stroke:#000000;stroke-opacity:1;stroke-width:10;stroke-linejoin:round;stroke-miterlimit:2;stroke-linecap:round;fill:none;"/>
        </g>
        <g id="Shape4">
            <desc shapeID="4" type="0" basicInfo-basicType="0" basicInfo-roundedRectRadius="12" basicInfo-polygonSides="6" basicInfo-starPoints="5" bounding="rect(-50.257,-42.9478,100.514,85.8956)" text="" font-familyName="" font-pixelSize="20" font-bold="0" font-underline="0" font-alignment="1" strokeStyle="0" markerStart="0" markerEnd="0" shadowEnabled="0" shadowOffsetX="0" shadowOffsetY="2" shadowBlur="4" shadowOpacity="160" blurEnabled="0" blurRadius="4" transform="matrix(1,0,0,1,298.528,145.888)" pers-center="0,0" pers-size="0,0" pers-start="0,0" pers-end="0,0" locked="0" mesh="" flag=""/>
            <path id="shapePath4" d="M339.773,102.941 C302.08,106.031 276.192,121.194 263.438,139.875 C250.683,158.556 248.375,177.375 248.375,177.375 C247.987,180.003 248.7,182.776 250.308,184.891 C251.916,187.005 254.398,188.434 257.034,188.762 C259.67,189.09 262.426,188.313 264.503,186.657 C266.58,185.001 267.951,182.487 268.219,179.844 C268.219,179.844 270.023,165.677 279.938,151.156 C289.852,136.635 307.362,120.716 340.731,113.503 C344.319,112.542 348.769,112.821 348.785,107.624 C348.399,103.122 344.97,102.923 339.773,102.941 Z" style="stroke:none;fill-rule:nonzero;fill:#000000;fill-opacity:1;"/>
        </g>
        <g id="Shape5">
            <desc shapeID="5" type="0" basicInfo-basicType="0" basicInfo-roundedRectRadius="12" basicInfo-polygonSides="6" basicInfo-starPoints="5" bounding="rect(-14.0012,-41.8687,28.0023,83.7373)" text="" font-familyName="" font-pixelSize="20" font-bold="0" font-underline="0" font-alignment="1" strokeStyle="0" markerStart="0" markerEnd="0" shadowEnabled="0" shadowOffsetX="0" shadowOffsetY="2" shadowBlur="4" shadowOpacity="160" blurEnabled="0" blurRadius="4" transform="matrix(1,0,0,1,249.125,145.055)" pers-center="0,0" pers-size="0,0" pers-start="0,0" pers-end="0,0" locked="0" mesh="" flag=""/>
            <path id="shapePath5" d="M248.969,103.188 C246.351,103.228 239.766,104.347 237.943,106.227 C236.121,108.107 235.084,110.726 235.125,113.344 L239.125,176.781 C239.088,179.423 240.149,182.063 242.003,183.944 C243.858,185.825 246.483,186.924 249.125,186.924 C251.767,186.924 254.392,185.825 256.247,183.944 C258.101,182.063 259.162,179.423 259.125,176.781 L263.125,113.344 C263.167,110.674 262.085,108.004 260.197,106.116 C258.309,104.227 251.639,103.146 248.969,103.188 Z" style="stroke:none;fill-rule:nonzero;fill:#000000;fill-opacity:1;"/>
        </g>
        <g id="Shape6">
            <desc shapeID="6" type="0" basicInfo-basicType="0" basicInfo-roundedRectRadius="12" basicInfo-polygonSides="6" basicInfo-starPoints="5" bounding="rect(-51.257,-37.9478,102.514,75.8956)" text="" font-familyName="" font-pixelSize="20" font-bold="0" font-underline="0" font-alignment="1" strokeStyle="0" markerStart="0" markerEnd="0" shadowEnabled="0" shadowOffsetX="0" shadowOffsetY="2" shadowBlur="4" shadowOpacity="160" blurEnabled="0" blurRadius="4" transform="matrix(1,0,0,1,201.528,150.888)" pers-center="0,0" pers-size="0,0" pers-start="0,0" pers-end="0,0" locked="0" mesh="" flag=""/>
            <path id="shapePath6" d="M159.283,112.941 C196.976,116.031 224.864,121.194 237.619,139.875 C250.373,158.556 252.681,177.375 252.681,177.375 C253.07,180.003 252.356,182.776 250.748,184.891 C249.14,187.005 246.659,188.434 244.022,188.762 C241.386,189.09 238.63,188.313 236.553,186.657 C234.476,185.001 233.105,182.487 232.837,179.844 C232.837,179.844 231.033,165.677 221.119,151.156 C211.204,136.635 191.694,130.716 158.325,123.503 C154.737,122.542 150.287,122.821 150.271,117.624 C150.657,113.122 154.086,112.923 159.283,112.941 Z" style="stroke:none;fill-rule:nonzero;fill:#000000;fill-opacity:1;"/>
        </g>
    </g>
</svg>
